<svg version="1.1" id="Layer_1" xmlns="http://www.w3.org/2000/svg" xmlns:xlink="http://www.w3.org/1999/xlink" x="0px" y="0px"
	 width="100%" viewBox="0 0 728 728" enable-background="new 0 0 728 728" xml:space="preserve">
<path fill="#000000" opacity="1.000000" stroke="none" 
	d="
M486.000000,1.000000 
	C566.982239,1.000000 647.964539,1.000000 728.973389,1.000000 
	C728.973389,243.595795 728.973389,486.191620 728.973389,728.893677 
	C486.457367,728.893677 243.914658,728.893677 1.000000,728.893677 
	C1.000000,648.308838 1.000000,567.617065 1.466042,486.462646 
	C80.795448,486.000000 159.658813,486.001099 238.522186,485.993042 
	C240.348022,485.992859 242.173859,485.889038 244.463074,485.903290 
	C325.177826,485.973022 405.429169,485.973022 486.000000,485.973022 
	C486.000000,483.898407 486.000000,482.424927 486.000000,480.951447 
	C486.000000,403.297089 486.000854,325.642700 485.993134,247.988342 
	C485.992981,246.658798 485.889069,245.329239 485.910950,243.539322 
	C485.992188,162.385971 485.996094,81.692986 486.000000,1.000000 
z"/>
<path fill="#FFFFFF" opacity="1.000000" stroke="none" 
	d="
M243.999695,485.833557 
	C242.173859,485.889038 240.348022,485.992859 238.522186,485.993042 
	C159.658813,486.001099 80.795448,486.000000 1.466042,486.000000 
	C1.000000,324.405365 1.000000,162.810745 1.000000,1.000000 
	C162.355911,1.000000 323.711914,1.000000 485.533966,1.000000 
	C485.996094,81.692986 485.992188,162.385971 485.453491,243.539429 
	C404.703217,243.999908 324.487701,243.999908 243.999695,243.999908 
	C243.999695,324.989075 243.999695,405.411316 243.999695,485.833557 
z"/>
<path fill="#FF0000" opacity="1.000000" stroke="none" 
	d="
M244.463074,485.903290 
	C243.999695,405.411316 243.999695,324.989075 243.999695,243.999908 
	C324.487701,243.999908 404.703217,243.999908 485.376160,243.999802 
	C485.889069,245.329239 485.992981,246.658798 485.993134,247.988342 
	C486.000854,325.642700 486.000000,403.297089 486.000000,480.951447 
	C486.000000,482.424927 486.000000,483.898407 486.000000,485.973022 
	C405.429169,485.973022 325.177826,485.973022 244.463074,485.903290 
z"/>
</svg>